<?xml version="1.0" encoding="utf-8" standalone="no"?>
<!DOCTYPE svg PUBLIC "-//W3C//DTD SVG 1.1//EN"
  "http://www.w3.org/Graphics/SVG/1.1/DTD/svg11.dtd">
<svg height="432pt" version="1.1" viewBox="0 0 504 432" width="504pt" xmlns="http://www.w3.org/2000/svg" xmlns:xlink="http://www.w3.org/1999/xlink">
 <metadata>
  <rdf:RDF xmlns:cc="http://creativecommons.org/ns#" xmlns:dc="http://purl.org/dc/elements/1.1/" xmlns:rdf="http://www.w3.org/1999/02/22-rdf-syntax-ns#">
   <cc:Work>
    <dc:type rdf:resource="http://purl.org/dc/dcmitype/StillImage"/>
    <dc:date>2022-04-12T17:15:34.122407</dc:date>
    <dc:format>image/svg+xml</dc:format>
    <dc:creator>
     <cc:Agent>
      <dc:title>Matplotlib v3.4.3, https://matplotlib.org/</dc:title>
     </cc:Agent>
    </dc:creator>
   </cc:Work>
  </rdf:RDF>
 </metadata>
 <defs>
  <style type="text/css">*{stroke-linecap:butt;stroke-linejoin:round;}</style>
 </defs>
 <g id="figure_1">
  <g id="patch_1">
   <path d="M 0 432 
L 504 432 
L 504 0 
L 0 0 
z
" style="fill:#ffffff;"/>
  </g>
  <g id="axes_1">
   <g id="patch_2">
    <path clip-path="url(#p232b149d23)" d="M 38.653563 304.803887 
L 169.031941 304.803887 
Q 174.958231 304.803887 174.958231 298.883627 
L 174.958231 227.840518 
Q 174.958231 221.920259 169.031941 221.920259 
L 38.653563 221.920259 
Q 32.727273 221.920259 32.727273 227.840518 
L 32.727273 298.883627 
Q 32.727273 304.803887 38.653563 304.803887 
z
" style="fill:none;stroke:#000000;stroke-linejoin:miter;stroke-width:0.7;"/>
   </g>
   <g id="patch_3">
    <path clip-path="url(#p232b149d23)" d="M 38.653563 156.797409 
L 169.031941 156.797409 
Q 174.958231 156.797409 174.958231 150.87715 
L 174.958231 79.834041 
Q 174.958231 73.913782 169.031941 73.913782 
L 38.653563 73.913782 
Q 32.727273 73.913782 32.727273 79.834041 
L 32.727273 150.87715 
Q 32.727273 156.797409 38.653563 156.797409 
z
" style="fill:none;stroke:#000000;stroke-linejoin:miter;stroke-width:0.7;"/>
   </g>
   <g id="patch_4">
    <path clip-path="url(#p232b149d23)" d="M 216.44226 387.687514 
L 317.189189 387.687514 
Q 323.115479 387.687514 323.115479 381.767255 
L 323.115479 227.840518 
Q 323.115479 221.920259 317.189189 221.920259 
L 216.44226 221.920259 
Q 210.515971 221.920259 210.515971 227.840518 
L 210.515971 381.767255 
Q 210.515971 387.687514 216.44226 387.687514 
z
" style="fill:none;stroke:#000000;stroke-linejoin:miter;stroke-width:0.7;"/>
   </g>
   <g id="patch_5">
    <path clip-path="url(#p232b149d23)" d="M 216.44226 186.398704 
L 317.189189 186.398704 
Q 323.115479 186.398704 323.115479 180.478445 
L 323.115479 50.232745 
Q 323.115479 44.312486 317.189189 44.312486 
L 216.44226 44.312486 
Q 210.515971 44.312486 210.515971 50.232745 
L 210.515971 180.478445 
Q 210.515971 186.398704 216.44226 186.398704 
z
" style="fill:none;stroke:#000000;stroke-linejoin:miter;stroke-width:0.7;"/>
   </g>
   <g id="patch_6">
    <path clip-path="url(#p232b149d23)" d="M 394.230958 216 
L 465.346437 216 
Q 471.272727 216 471.272727 210.079741 
L 471.272727 198.239223 
Q 471.272727 192.318964 465.346437 192.318964 
L 394.230958 192.318964 
Q 388.304668 192.318964 388.304668 198.239223 
L 388.304668 210.079741 
Q 388.304668 216 394.230958 216 
z
" style="fill:none;stroke:#000000;stroke-linejoin:miter;stroke-width:0.7;"/>
   </g>
   <g id="patch_7">
    <path clip-path="url(#p232b149d23)" d="M 209.449239 115.355595 
L 204.115578 117.131673 
L 204.115578 115.355595 
L 204.115577 115.355595 
L 204.115577 115.355595 
L 204.115578 115.355595 
L 204.115578 113.579518 
z
" style="stroke:#000000;stroke-linejoin:miter;stroke-width:1.5;"/>
   </g>
   <g id="patch_8">
    <path clip-path="url(#p232b149d23)" d="M 209.821751 181.287544 
L 207.700523 186.488896 
L 206.35065 185.33304 
L 206.35065 185.333041 
L 206.35065 185.333041 
L 206.35065 185.33304 
L 205.000778 184.177184 
z
" style="stroke:#000000;stroke-linejoin:miter;stroke-width:1.5;"/>
   </g>
   <g id="patch_9">
    <path clip-path="url(#p232b149d23)" d="M 387.673842 216.859342 
L 385.953406 222.206364 
L 384.519709 221.156056 
L 384.519708 221.156057 
L 384.519708 221.156057 
L 384.519709 221.156056 
L 383.086012 220.105748 
z
" style="stroke:#000000;stroke-linejoin:miter;stroke-width:1.5;"/>
   </g>
   <g id="patch_10">
    <path clip-path="url(#p232b149d23)" d="M 387.615621 191.505464 
L 382.81317 188.585208 
L 384.170384 187.437964 
L 384.170384 187.437963 
L 384.170384 187.437963 
L 384.170384 187.437964 
L 385.527599 186.29072 
z
" style="stroke:#000000;stroke-linejoin:miter;stroke-width:1.5;"/>
   </g>
   <g id="line2d_1">
    <path clip-path="url(#p232b149d23)" d="M 174.958231 115.355595 
L 205.18231 115.355595 
" style="fill:none;stroke:#000000;stroke-width:1.5;"/>
   </g>
   <g id="line2d_2">
    <path clip-path="url(#p232b149d23)" d="M 174.958231 221.920259 
L 207.04487 184.523942 
" style="fill:none;stroke:#000000;stroke-width:1.5;"/>
   </g>
   <g id="line2d_3">
    <path clip-path="url(#p232b149d23)" d="M 323.115479 304.803887 
L 385.150535 220.296714 
" style="fill:none;stroke:#000000;stroke-width:1.5;"/>
   </g>
   <g id="line2d_4">
    <path clip-path="url(#p232b149d23)" d="M 323.115479 115.355595 
L 384.859431 188.251463 
" style="fill:none;stroke:#000000;stroke-width:1.5;"/>
   </g>
   <g id="text_1">
    <!-- Optimizers -->
    <g transform="translate(73.241971 215.69639)scale(0.1 -0.1)">
     <defs>
      <path d="M 2719 3878 
Q 2169 3878 1866 3472 
Q 1563 3066 1563 2328 
Q 1563 1594 1866 1187 
Q 2169 781 2719 781 
Q 3272 781 3575 1187 
Q 3878 1594 3878 2328 
Q 3878 3066 3575 3472 
Q 3272 3878 2719 3878 
z
M 2719 4750 
Q 3844 4750 4481 4106 
Q 5119 3463 5119 2328 
Q 5119 1197 4481 553 
Q 3844 -91 2719 -91 
Q 1597 -91 958 553 
Q 319 1197 319 2328 
Q 319 3463 958 4106 
Q 1597 4750 2719 4750 
z
" id="DejaVuSans-Bold-4f" transform="scale(0.015625)"/>
      <path d="M 1656 506 
L 1656 -1331 
L 538 -1331 
L 538 3500 
L 1656 3500 
L 1656 2988 
Q 1888 3294 2169 3439 
Q 2450 3584 2816 3584 
Q 3463 3584 3878 3070 
Q 4294 2556 4294 1747 
Q 4294 938 3878 423 
Q 3463 -91 2816 -91 
Q 2450 -91 2169 54 
Q 1888 200 1656 506 
z
M 2400 2772 
Q 2041 2772 1848 2508 
Q 1656 2244 1656 1747 
Q 1656 1250 1848 986 
Q 2041 722 2400 722 
Q 2759 722 2948 984 
Q 3138 1247 3138 1747 
Q 3138 2247 2948 2509 
Q 2759 2772 2400 2772 
z
" id="DejaVuSans-Bold-70" transform="scale(0.015625)"/>
      <path d="M 1759 4494 
L 1759 3500 
L 2913 3500 
L 2913 2700 
L 1759 2700 
L 1759 1216 
Q 1759 972 1856 886 
Q 1953 800 2241 800 
L 2816 800 
L 2816 0 
L 1856 0 
Q 1194 0 917 276 
Q 641 553 641 1216 
L 641 2700 
L 84 2700 
L 84 3500 
L 641 3500 
L 641 4494 
L 1759 4494 
z
" id="DejaVuSans-Bold-74" transform="scale(0.015625)"/>
      <path d="M 538 3500 
L 1656 3500 
L 1656 0 
L 538 0 
L 538 3500 
z
M 538 4863 
L 1656 4863 
L 1656 3950 
L 538 3950 
L 538 4863 
z
" id="DejaVuSans-Bold-69" transform="scale(0.015625)"/>
      <path d="M 3781 2919 
Q 3994 3244 4286 3414 
Q 4578 3584 4928 3584 
Q 5531 3584 5847 3212 
Q 6163 2841 6163 2131 
L 6163 0 
L 5038 0 
L 5038 1825 
Q 5041 1866 5042 1909 
Q 5044 1953 5044 2034 
Q 5044 2406 4934 2573 
Q 4825 2741 4581 2741 
Q 4263 2741 4089 2478 
Q 3916 2216 3909 1719 
L 3909 0 
L 2784 0 
L 2784 1825 
Q 2784 2406 2684 2573 
Q 2584 2741 2328 2741 
Q 2006 2741 1831 2477 
Q 1656 2213 1656 1722 
L 1656 0 
L 531 0 
L 531 3500 
L 1656 3500 
L 1656 2988 
Q 1863 3284 2130 3434 
Q 2397 3584 2719 3584 
Q 3081 3584 3359 3409 
Q 3638 3234 3781 2919 
z
" id="DejaVuSans-Bold-6d" transform="scale(0.015625)"/>
      <path d="M 366 3500 
L 3419 3500 
L 3419 2719 
L 1575 800 
L 3419 800 
L 3419 0 
L 288 0 
L 288 781 
L 2131 2700 
L 366 2700 
L 366 3500 
z
" id="DejaVuSans-Bold-7a" transform="scale(0.015625)"/>
      <path d="M 4031 1759 
L 4031 1441 
L 1416 1441 
Q 1456 1047 1700 850 
Q 1944 653 2381 653 
Q 2734 653 3104 758 
Q 3475 863 3866 1075 
L 3866 213 
Q 3469 63 3072 -14 
Q 2675 -91 2278 -91 
Q 1328 -91 801 392 
Q 275 875 275 1747 
Q 275 2603 792 3093 
Q 1309 3584 2216 3584 
Q 3041 3584 3536 3087 
Q 4031 2591 4031 1759 
z
M 2881 2131 
Q 2881 2450 2695 2645 
Q 2509 2841 2209 2841 
Q 1884 2841 1681 2658 
Q 1478 2475 1428 2131 
L 2881 2131 
z
" id="DejaVuSans-Bold-65" transform="scale(0.015625)"/>
      <path d="M 3138 2547 
Q 2991 2616 2845 2648 
Q 2700 2681 2553 2681 
Q 2122 2681 1889 2404 
Q 1656 2128 1656 1613 
L 1656 0 
L 538 0 
L 538 3500 
L 1656 3500 
L 1656 2925 
Q 1872 3269 2151 3426 
Q 2431 3584 2822 3584 
Q 2878 3584 2943 3579 
Q 3009 3575 3134 3559 
L 3138 2547 
z
" id="DejaVuSans-Bold-72" transform="scale(0.015625)"/>
      <path d="M 3272 3391 
L 3272 2541 
Q 2913 2691 2578 2766 
Q 2244 2841 1947 2841 
Q 1628 2841 1473 2761 
Q 1319 2681 1319 2516 
Q 1319 2381 1436 2309 
Q 1553 2238 1856 2203 
L 2053 2175 
Q 2913 2066 3209 1816 
Q 3506 1566 3506 1031 
Q 3506 472 3093 190 
Q 2681 -91 1863 -91 
Q 1516 -91 1145 -36 
Q 775 19 384 128 
L 384 978 
Q 719 816 1070 734 
Q 1422 653 1784 653 
Q 2113 653 2278 743 
Q 2444 834 2444 1013 
Q 2444 1163 2330 1236 
Q 2216 1309 1875 1350 
L 1678 1375 
Q 931 1469 631 1722 
Q 331 1975 331 2491 
Q 331 3047 712 3315 
Q 1094 3584 1881 3584 
Q 2191 3584 2531 3537 
Q 2872 3491 3272 3391 
z
" id="DejaVuSans-Bold-73" transform="scale(0.015625)"/>
     </defs>
     <use xlink:href="#DejaVuSans-Bold-4f"/>
     <use x="85.009766" xlink:href="#DejaVuSans-Bold-70"/>
     <use x="156.591797" xlink:href="#DejaVuSans-Bold-74"/>
     <use x="204.394531" xlink:href="#DejaVuSans-Bold-69"/>
     <use x="238.671875" xlink:href="#DejaVuSans-Bold-6d"/>
     <use x="342.871094" xlink:href="#DejaVuSans-Bold-69"/>
     <use x="377.148438" xlink:href="#DejaVuSans-Bold-7a"/>
     <use x="435.351562" xlink:href="#DejaVuSans-Bold-65"/>
     <use x="503.173828" xlink:href="#DejaVuSans-Bold-72"/>
     <use x="552.490234" xlink:href="#DejaVuSans-Bold-73"/>
    </g>
   </g>
   <g id="text_2">
    <!-- TreeSA -->
    <g transform="translate(85.842752 242.65476)scale(0.12 -0.12)">
     <defs>
      <path d="M 2950 3962 
L 2950 3514 
L 1862 3514 
L 1862 0 
L 1338 0 
L 1338 3514 
L 250 3514 
L 250 3962 
L 2950 3962 
z
" id="UbuntuMono-Regular-54" transform="scale(0.015625)"/>
      <path d="M 685 0 
L 685 2810 
Q 1338 3034 2003 3034 
Q 2208 3034 2393 3018 
Q 2579 3002 2803 2950 
L 2707 2483 
Q 2502 2541 2345 2557 
Q 2189 2573 2003 2573 
Q 1613 2573 1210 2464 
L 1210 0 
L 685 0 
z
" id="UbuntuMono-Regular-72" transform="scale(0.015625)"/>
      <path d="M 1658 3040 
Q 2259 3040 2585 2665 
Q 2912 2291 2912 1530 
L 2912 1344 
L 787 1344 
Q 819 883 1091 643 
Q 1363 403 1856 403 
Q 2138 403 2336 448 
Q 2534 493 2637 544 
L 2707 96 
Q 2611 45 2361 -12 
Q 2112 -70 1798 -70 
Q 1414 -70 1123 48 
Q 832 166 640 371 
Q 448 576 352 861 
Q 256 1146 256 1478 
Q 256 1875 377 2169 
Q 499 2464 697 2656 
Q 896 2848 1145 2944 
Q 1395 3040 1658 3040 
z
M 2374 1773 
Q 2374 2150 2176 2371 
Q 1978 2592 1651 2592 
Q 1466 2592 1315 2521 
Q 1165 2451 1056 2336 
Q 947 2221 883 2073 
Q 819 1926 800 1773 
L 2374 1773 
z
" id="UbuntuMono-Regular-65" transform="scale(0.015625)"/>
      <path d="M 1498 371 
Q 1901 371 2112 524 
Q 2323 678 2323 986 
Q 2323 1171 2246 1302 
Q 2170 1434 2042 1533 
Q 1914 1632 1754 1705 
Q 1594 1779 1427 1843 
Q 1235 1920 1059 2016 
Q 883 2112 745 2240 
Q 608 2368 528 2541 
Q 448 2714 448 2950 
Q 448 3469 774 3760 
Q 1101 4051 1683 4051 
Q 1843 4051 2000 4028 
Q 2157 4006 2291 3974 
Q 2426 3942 2531 3897 
Q 2637 3853 2701 3808 
L 2534 3366 
Q 2406 3443 2182 3520 
Q 1958 3597 1683 3597 
Q 1395 3597 1184 3453 
Q 973 3309 973 3021 
Q 973 2854 1033 2739 
Q 1094 2624 1200 2537 
Q 1306 2451 1446 2380 
Q 1587 2310 1754 2240 
Q 1997 2138 2198 2035 
Q 2400 1933 2544 1792 
Q 2688 1651 2768 1459 
Q 2848 1267 2848 992 
Q 2848 474 2499 195 
Q 2150 -83 1498 -83 
Q 1286 -83 1100 -54 
Q 915 -26 771 19 
Q 627 64 518 109 
Q 410 154 352 192 
L 512 627 
Q 640 557 889 464 
Q 1139 371 1498 371 
z
" id="UbuntuMono-Regular-53" transform="scale(0.015625)"/>
      <path d="M 2586 0 
L 2349 1037 
L 826 1037 
L 595 0 
L 58 0 
Q 166 422 300 915 
Q 435 1408 592 1926 
Q 749 2445 921 2966 
Q 1094 3488 1286 3962 
L 1939 3962 
Q 2125 3488 2294 2966 
Q 2464 2445 2614 1926 
Q 2765 1408 2899 915 
Q 3034 422 3142 0 
L 2586 0 
z
M 1594 3501 
Q 1446 3098 1273 2566 
Q 1101 2035 947 1472 
L 2227 1472 
Q 2080 2048 1910 2582 
Q 1741 3117 1594 3501 
z
" id="UbuntuMono-Regular-41" transform="scale(0.015625)"/>
     </defs>
     <use xlink:href="#UbuntuMono-Regular-54"/>
     <use x="49.999985" xlink:href="#UbuntuMono-Regular-72"/>
     <use x="99.999969" xlink:href="#UbuntuMono-Regular-65"/>
     <use x="149.999954" xlink:href="#UbuntuMono-Regular-65"/>
     <use x="199.999939" xlink:href="#UbuntuMono-Regular-53"/>
     <use x="249.999924" xlink:href="#UbuntuMono-Regular-41"/>
    </g>
    <!-- GreedyMethod -->
    <g transform="translate(67.842752 254.61351)scale(0.12 -0.12)">
     <defs>
      <path d="M 2387 1952 
L 2912 1952 
L 2912 96 
Q 2790 51 2521 -16 
Q 2253 -83 1888 -83 
Q 1530 -83 1235 54 
Q 941 192 733 454 
Q 525 717 409 1104 
Q 294 1491 294 1984 
Q 294 2483 422 2867 
Q 550 3251 771 3513 
Q 992 3776 1286 3913 
Q 1581 4051 1920 4051 
Q 2138 4051 2304 4019 
Q 2470 3987 2588 3942 
Q 2707 3898 2784 3850 
Q 2861 3802 2899 3776 
L 2726 3334 
Q 2579 3450 2377 3523 
Q 2176 3597 1952 3597 
Q 1709 3597 1501 3481 
Q 1293 3366 1145 3155 
Q 998 2944 915 2646 
Q 832 2349 832 1984 
Q 832 1626 905 1331 
Q 979 1037 1120 825 
Q 1261 614 1469 496 
Q 1677 378 1946 378 
Q 2131 378 2233 403 
Q 2336 429 2387 454 
L 2387 1952 
z
" id="UbuntuMono-Regular-47" transform="scale(0.015625)"/>
      <path d="M 2214 2342 
Q 2125 2426 1952 2499 
Q 1779 2573 1594 2573 
Q 1382 2573 1232 2489 
Q 1082 2406 986 2262 
Q 890 2118 845 1916 
Q 800 1715 800 1485 
Q 800 966 1043 684 
Q 1286 403 1677 403 
Q 1875 403 2012 422 
Q 2150 442 2214 461 
L 2214 2342 
z
M 2214 4346 
L 2746 4435 
L 2746 83 
Q 2573 32 2304 -19 
Q 2035 -70 1677 -70 
Q 1357 -70 1094 38 
Q 832 147 646 348 
Q 461 550 358 838 
Q 256 1126 256 1485 
Q 256 1830 342 2115 
Q 429 2400 595 2605 
Q 762 2810 995 2925 
Q 1229 3040 1530 3040 
Q 1766 3040 1945 2982 
Q 2125 2925 2214 2861 
L 2214 4346 
z
" id="UbuntuMono-Regular-64" transform="scale(0.015625)"/>
      <path d="M 326 -557 
Q 384 -589 489 -608 
Q 595 -627 685 -627 
Q 998 -627 1174 -489 
Q 1350 -352 1498 -38 
Q 1139 640 825 1417 
Q 512 2195 307 2970 
L 883 2970 
Q 947 2714 1033 2416 
Q 1120 2118 1229 1804 
Q 1338 1491 1462 1174 
Q 1587 858 1728 570 
Q 1830 864 1920 1152 
Q 2010 1440 2086 1731 
Q 2163 2022 2240 2326 
Q 2317 2630 2400 2970 
L 2950 2970 
Q 2746 2138 2493 1357 
Q 2240 576 1952 -90 
Q 1843 -346 1718 -531 
Q 1594 -717 1446 -838 
Q 1299 -960 1113 -1017 
Q 928 -1075 691 -1075 
Q 570 -1075 426 -1043 
Q 282 -1011 230 -986 
L 326 -557 
z
" id="UbuntuMono-Regular-79" transform="scale(0.015625)"/>
      <path d="M 1606 1990 
L 2221 3962 
L 2714 3962 
Q 2842 3027 2896 2048 
Q 2950 1069 2995 0 
L 2483 0 
Q 2477 346 2470 749 
Q 2464 1152 2454 1581 
Q 2445 2010 2435 2451 
Q 2426 2893 2413 3309 
L 1837 1504 
L 1376 1504 
L 787 3309 
Q 781 2893 771 2454 
Q 762 2016 752 1584 
Q 742 1152 732 749 
Q 723 346 717 0 
L 205 0 
Q 224 486 249 998 
Q 275 1510 310 2016 
Q 346 2522 394 3014 
Q 442 3507 499 3962 
L 986 3962 
L 1606 1990 
z
" id="UbuntuMono-Regular-4d" transform="scale(0.015625)"/>
      <path d="M 1555 2970 
L 2810 2970 
L 2810 2528 
L 1555 2528 
L 1555 1146 
Q 1555 922 1587 781 
Q 1619 640 1692 553 
Q 1766 467 1881 435 
Q 1997 403 2163 403 
Q 2394 403 2534 441 
Q 2675 480 2803 544 
L 2880 96 
Q 2790 58 2595 -6 
Q 2400 -70 2112 -70 
Q 1779 -70 1568 6 
Q 1357 83 1238 236 
Q 1120 390 1075 617 
Q 1030 845 1030 1146 
L 1030 2528 
L 403 2528 
L 403 2970 
L 1030 2970 
L 1030 3802 
L 1555 3891 
L 1555 2970 
z
" id="UbuntuMono-Regular-74" transform="scale(0.015625)"/>
      <path d="M 454 0 
L 454 4346 
L 986 4435 
L 986 2925 
Q 1114 2976 1274 3005 
Q 1434 3034 1587 3034 
Q 1926 3034 2153 2934 
Q 2381 2835 2515 2656 
Q 2650 2477 2707 2227 
Q 2765 1978 2765 1677 
L 2765 0 
L 2240 0 
L 2240 1562 
Q 2240 2112 2086 2339 
Q 1933 2566 1536 2566 
Q 1370 2566 1213 2531 
Q 1056 2496 986 2464 
L 986 0 
L 454 0 
z
" id="UbuntuMono-Regular-68" transform="scale(0.015625)"/>
      <path d="M 2944 1485 
Q 2944 1133 2845 848 
Q 2746 563 2566 358 
Q 2387 154 2137 42 
Q 1888 -70 1594 -70 
Q 1306 -70 1059 42 
Q 813 154 633 358 
Q 454 563 355 848 
Q 256 1133 256 1485 
Q 256 1837 355 2125 
Q 454 2413 633 2614 
Q 813 2816 1059 2928 
Q 1306 3040 1594 3040 
Q 1888 3040 2137 2928 
Q 2387 2816 2566 2614 
Q 2746 2413 2845 2125 
Q 2944 1837 2944 1485 
z
M 2400 1485 
Q 2400 1990 2182 2281 
Q 1965 2573 1594 2573 
Q 1229 2573 1014 2281 
Q 800 1990 800 1485 
Q 800 986 1014 694 
Q 1229 403 1594 403 
Q 1965 403 2182 694 
Q 2400 986 2400 1485 
z
" id="UbuntuMono-Regular-6f" transform="scale(0.015625)"/>
     </defs>
     <use xlink:href="#UbuntuMono-Regular-47"/>
     <use x="49.999985" xlink:href="#UbuntuMono-Regular-72"/>
     <use x="99.999969" xlink:href="#UbuntuMono-Regular-65"/>
     <use x="149.999954" xlink:href="#UbuntuMono-Regular-65"/>
     <use x="199.999939" xlink:href="#UbuntuMono-Regular-64"/>
     <use x="249.999924" xlink:href="#UbuntuMono-Regular-79"/>
     <use x="299.999908" xlink:href="#UbuntuMono-Regular-4d"/>
     <use x="349.999893" xlink:href="#UbuntuMono-Regular-65"/>
     <use x="399.999878" xlink:href="#UbuntuMono-Regular-74"/>
     <use x="449.999863" xlink:href="#UbuntuMono-Regular-68"/>
     <use x="499.999847" xlink:href="#UbuntuMono-Regular-6f"/>
     <use x="549.999832" xlink:href="#UbuntuMono-Regular-64"/>
    </g>
    <!-- KaHyBipartite -->
    <g transform="translate(64.842752 266.535885)scale(0.12 -0.12)">
     <defs>
      <path d="M 3008 3962 
Q 2694 3494 2320 3033 
Q 1946 2573 1510 2112 
Q 1715 1939 1945 1708 
Q 2176 1478 2397 1206 
Q 2618 934 2813 627 
Q 3008 320 3142 0 
L 2547 0 
Q 2387 294 2201 576 
Q 2016 858 1808 1101 
Q 1600 1344 1379 1545 
Q 1158 1747 934 1894 
L 934 0 
L 410 0 
L 410 3962 
L 934 3962 
L 934 2195 
Q 1350 2624 1731 3091 
Q 2112 3558 2400 3962 
L 3008 3962 
z
" id="UbuntuMono-Regular-4b" transform="scale(0.015625)"/>
      <path d="M 1632 378 
Q 1830 378 1987 390 
Q 2144 403 2246 422 
L 2246 1306 
Q 2144 1338 2000 1357 
Q 1856 1376 1696 1376 
Q 1549 1376 1408 1353 
Q 1267 1331 1158 1273 
Q 1050 1216 979 1123 
Q 909 1030 909 890 
Q 909 602 1104 490 
Q 1299 378 1632 378 
z
M 1581 3040 
Q 1914 3040 2141 2957 
Q 2368 2874 2509 2726 
Q 2650 2579 2707 2368 
Q 2765 2157 2765 1907 
L 2765 51 
Q 2579 19 2275 -25 
Q 1971 -70 1651 -70 
Q 1408 -70 1177 -28 
Q 947 13 768 118 
Q 589 224 480 409 
Q 371 595 371 883 
Q 371 1139 483 1315 
Q 595 1491 771 1600 
Q 947 1709 1174 1757 
Q 1402 1805 1632 1805 
Q 1946 1805 2246 1734 
L 2246 1882 
Q 2246 2016 2217 2141 
Q 2189 2266 2109 2368 
Q 2029 2470 1891 2531 
Q 1754 2592 1536 2592 
Q 1261 2592 1056 2553 
Q 851 2515 742 2477 
L 678 2912 
Q 787 2963 1040 3001 
Q 1293 3040 1581 3040 
z
" id="UbuntuMono-Regular-61" transform="scale(0.015625)"/>
      <path d="M 2387 3962 
L 2912 3962 
L 2912 0 
L 2387 0 
L 2387 1843 
L 813 1843 
L 813 0 
L 288 0 
L 288 3962 
L 813 3962 
L 813 2291 
L 2387 2291 
L 2387 3962 
z
" id="UbuntuMono-Regular-48" transform="scale(0.015625)"/>
      <path d="M 1306 -32 
Q 1210 -32 1082 -25 
Q 954 -19 826 -9 
Q 698 0 570 19 
Q 442 38 346 64 
L 346 3904 
Q 442 3930 566 3949 
Q 691 3968 822 3977 
Q 954 3987 1078 3993 
Q 1203 4000 1306 4000 
Q 1600 4000 1856 3949 
Q 2112 3898 2301 3776 
Q 2490 3654 2595 3456 
Q 2701 3258 2701 2963 
Q 2701 2822 2656 2691 
Q 2611 2560 2531 2445 
Q 2451 2330 2345 2243 
Q 2240 2157 2118 2112 
Q 2445 2022 2665 1782 
Q 2886 1542 2886 1158 
Q 2886 570 2508 269 
Q 2131 -32 1306 -32 
z
M 870 1850 
L 870 435 
Q 883 429 1014 419 
Q 1146 410 1344 410 
Q 1542 410 1724 442 
Q 1907 474 2048 560 
Q 2189 646 2275 787 
Q 2362 928 2362 1152 
Q 2362 1350 2282 1484 
Q 2202 1619 2070 1699 
Q 1939 1779 1766 1814 
Q 1594 1850 1408 1850 
L 870 1850 
z
M 870 2285 
L 1286 2285 
Q 1446 2285 1606 2317 
Q 1766 2349 1894 2419 
Q 2022 2490 2099 2611 
Q 2176 2733 2176 2918 
Q 2176 3091 2105 3212 
Q 2035 3334 1920 3411 
Q 1805 3488 1654 3520 
Q 1504 3552 1338 3552 
Q 1171 3552 1046 3549 
Q 922 3546 870 3533 
L 870 2285 
z
" id="UbuntuMono-Regular-42" transform="scale(0.015625)"/>
      <path d="M 1338 3430 
Q 1171 3430 1049 3545 
Q 928 3661 928 3859 
Q 928 4058 1049 4173 
Q 1171 4288 1338 4288 
Q 1510 4288 1628 4173 
Q 1747 4058 1747 3859 
Q 1747 3661 1628 3545 
Q 1510 3430 1338 3430 
z
M 1203 2528 
L 346 2528 
L 346 2970 
L 1728 2970 
L 1728 1146 
Q 1728 704 1849 553 
Q 1971 403 2214 403 
Q 2400 403 2557 448 
Q 2714 493 2803 544 
L 2880 96 
Q 2842 77 2771 48 
Q 2701 19 2608 -6 
Q 2515 -32 2403 -51 
Q 2291 -70 2170 -70 
Q 1888 -70 1702 6 
Q 1517 83 1405 236 
Q 1293 390 1248 617 
Q 1203 845 1203 1146 
L 1203 2528 
z
" id="UbuntuMono-Regular-69" transform="scale(0.015625)"/>
      <path d="M 2400 1478 
Q 2400 1997 2157 2281 
Q 1914 2566 1523 2566 
Q 1306 2566 1181 2547 
Q 1056 2528 986 2502 
L 986 627 
Q 1075 544 1248 473 
Q 1421 403 1606 403 
Q 1818 403 1968 486 
Q 2118 570 2214 714 
Q 2310 858 2355 1053 
Q 2400 1248 2400 1478 
z
M 2944 1478 
Q 2944 1139 2857 854 
Q 2771 570 2608 365 
Q 2445 160 2208 45 
Q 1971 -70 1670 -70 
Q 1434 -70 1254 -12 
Q 1075 45 986 115 
L 986 -1056 
L 454 -1056 
L 454 2880 
Q 627 2931 899 2982 
Q 1171 3034 1523 3034 
Q 1843 3034 2105 2925 
Q 2368 2816 2553 2614 
Q 2739 2413 2841 2125 
Q 2944 1837 2944 1478 
z
" id="UbuntuMono-Regular-70" transform="scale(0.015625)"/>
     </defs>
     <use xlink:href="#UbuntuMono-Regular-4b"/>
     <use x="49.999985" xlink:href="#UbuntuMono-Regular-61"/>
     <use x="99.999969" xlink:href="#UbuntuMono-Regular-48"/>
     <use x="149.999954" xlink:href="#UbuntuMono-Regular-79"/>
     <use x="199.999939" xlink:href="#UbuntuMono-Regular-42"/>
     <use x="249.999924" xlink:href="#UbuntuMono-Regular-69"/>
     <use x="299.999908" xlink:href="#UbuntuMono-Regular-70"/>
     <use x="349.999893" xlink:href="#UbuntuMono-Regular-61"/>
     <use x="399.999878" xlink:href="#UbuntuMono-Regular-72"/>
     <use x="449.999863" xlink:href="#UbuntuMono-Regular-74"/>
     <use x="499.999847" xlink:href="#UbuntuMono-Regular-69"/>
     <use x="549.999832" xlink:href="#UbuntuMono-Regular-74"/>
     <use x="599.999817" xlink:href="#UbuntuMono-Regular-65"/>
    </g>
    <!-- SABipartite -->
    <g transform="translate(70.842752 278.45826)scale(0.12 -0.12)">
     <use xlink:href="#UbuntuMono-Regular-53"/>
     <use x="49.999985" xlink:href="#UbuntuMono-Regular-41"/>
     <use x="99.999969" xlink:href="#UbuntuMono-Regular-42"/>
     <use x="149.999954" xlink:href="#UbuntuMono-Regular-69"/>
     <use x="199.999939" xlink:href="#UbuntuMono-Regular-70"/>
     <use x="249.999924" xlink:href="#UbuntuMono-Regular-61"/>
     <use x="299.999908" xlink:href="#UbuntuMono-Regular-72"/>
     <use x="349.999893" xlink:href="#UbuntuMono-Regular-74"/>
     <use x="399.999878" xlink:href="#UbuntuMono-Regular-69"/>
     <use x="449.999863" xlink:href="#UbuntuMono-Regular-74"/>
     <use x="499.999847" xlink:href="#UbuntuMono-Regular-65"/>
    </g>
    <!-- $\ldots$ -->
    <g transform="translate(97.842752 290.34501)scale(0.12 -0.12)">
     <defs>
      <path d="M 1066 606 
Q 1213 606 1313 504 
Q 1413 403 1413 259 
Q 1413 116 1311 14 
Q 1209 -88 1066 -88 
Q 922 -88 820 14 
Q 719 116 719 259 
Q 719 406 820 506 
Q 922 606 1066 606 
z
M 3200 606 
Q 3344 606 3445 504 
Q 3547 403 3547 259 
Q 3547 116 3445 14 
Q 3344 -88 3200 -88 
Q 3056 -88 2954 14 
Q 2853 116 2853 259 
Q 2853 406 2954 506 
Q 3056 606 3200 606 
z
M 5334 606 
Q 5478 606 5579 504 
Q 5681 403 5681 259 
Q 5681 116 5579 14 
Q 5478 -88 5334 -88 
Q 5191 -88 5089 14 
Q 4988 116 4988 259 
Q 4988 406 5088 506 
Q 5188 606 5334 606 
z
" id="TimesNewRomanPSMT-2026" transform="scale(0.015625)"/>
     </defs>
     <use transform="translate(0 0.53125)" xlink:href="#TimesNewRomanPSMT-2026"/>
    </g>
   </g>
   <g id="text_3">
    <!-- Graph -->
    <g transform="translate(86.760721 67.689913)scale(0.1 -0.1)">
     <defs>
      <path d="M 4781 347 
Q 4331 128 3847 18 
Q 3363 -91 2847 -91 
Q 1681 -91 1000 561 
Q 319 1213 319 2328 
Q 319 3456 1012 4103 
Q 1706 4750 2913 4750 
Q 3378 4750 3804 4662 
Q 4231 4575 4609 4403 
L 4609 3438 
Q 4219 3659 3833 3768 
Q 3447 3878 3059 3878 
Q 2341 3878 1952 3476 
Q 1563 3075 1563 2328 
Q 1563 1588 1938 1184 
Q 2313 781 3003 781 
Q 3191 781 3352 804 
Q 3513 828 3641 878 
L 3641 1784 
L 2906 1784 
L 2906 2591 
L 4781 2591 
L 4781 347 
z
" id="DejaVuSans-Bold-47" transform="scale(0.015625)"/>
      <path d="M 2106 1575 
Q 1756 1575 1579 1456 
Q 1403 1338 1403 1106 
Q 1403 894 1545 773 
Q 1688 653 1941 653 
Q 2256 653 2472 879 
Q 2688 1106 2688 1447 
L 2688 1575 
L 2106 1575 
z
M 3816 1997 
L 3816 0 
L 2688 0 
L 2688 519 
Q 2463 200 2181 54 
Q 1900 -91 1497 -91 
Q 953 -91 614 226 
Q 275 544 275 1050 
Q 275 1666 698 1953 
Q 1122 2241 2028 2241 
L 2688 2241 
L 2688 2328 
Q 2688 2594 2478 2717 
Q 2269 2841 1825 2841 
Q 1466 2841 1156 2769 
Q 847 2697 581 2553 
L 581 3406 
Q 941 3494 1303 3539 
Q 1666 3584 2028 3584 
Q 2975 3584 3395 3211 
Q 3816 2838 3816 1997 
z
" id="DejaVuSans-Bold-61" transform="scale(0.015625)"/>
      <path d="M 4056 2131 
L 4056 0 
L 2931 0 
L 2931 347 
L 2931 1625 
Q 2931 2084 2911 2256 
Q 2891 2428 2841 2509 
Q 2775 2619 2662 2680 
Q 2550 2741 2406 2741 
Q 2056 2741 1856 2470 
Q 1656 2200 1656 1722 
L 1656 0 
L 538 0 
L 538 4863 
L 1656 4863 
L 1656 2988 
Q 1909 3294 2193 3439 
Q 2478 3584 2822 3584 
Q 3428 3584 3742 3212 
Q 4056 2841 4056 2131 
z
" id="DejaVuSans-Bold-68" transform="scale(0.015625)"/>
     </defs>
     <use xlink:href="#DejaVuSans-Bold-47"/>
     <use x="82.080078" xlink:href="#DejaVuSans-Bold-72"/>
     <use x="131.396484" xlink:href="#DejaVuSans-Bold-61"/>
     <use x="198.876953" xlink:href="#DejaVuSans-Bold-70"/>
     <use x="270.458984" xlink:href="#DejaVuSans-Bold-68"/>
    </g>
   </g>
   <g id="text_4">
    <!-- random_regular_graph -->
    <g transform="translate(43.842752 94.570658)scale(0.12 -0.12)">
     <defs>
      <path d="M 454 2886 
Q 742 2957 1027 2995 
Q 1312 3034 1562 3034 
Q 2157 3034 2461 2726 
Q 2765 2419 2765 1741 
L 2765 0 
L 2240 0 
L 2240 1645 
Q 2240 1933 2189 2112 
Q 2138 2291 2045 2390 
Q 1952 2490 1821 2528 
Q 1690 2566 1536 2566 
Q 1408 2566 1264 2550 
Q 1120 2534 986 2509 
L 986 0 
L 454 0 
L 454 2886 
z
" id="UbuntuMono-Regular-6e" transform="scale(0.015625)"/>
      <path d="M 262 2886 
Q 646 3034 986 3034 
Q 1171 3034 1334 2979 
Q 1498 2925 1613 2810 
Q 1888 3034 2202 3034 
Q 2355 3034 2492 2976 
Q 2630 2918 2736 2803 
Q 2842 2688 2906 2515 
Q 2970 2342 2970 2112 
L 2970 0 
L 2490 0 
L 2490 2125 
Q 2490 2355 2387 2476 
Q 2285 2598 2131 2598 
Q 2054 2598 1971 2560 
Q 1888 2522 1818 2438 
Q 1856 2291 1856 2112 
L 1856 1146 
L 1376 1146 
L 1376 2118 
Q 1376 2342 1305 2470 
Q 1235 2598 1030 2598 
Q 902 2598 742 2541 
L 742 0 
L 262 0 
L 262 2886 
z
" id="UbuntuMono-Regular-6d" transform="scale(0.015625)"/>
      <path d="M 51 -608 
L 3149 -608 
L 3149 -1056 
L 51 -1056 
L 51 -608 
z
" id="UbuntuMono-Regular-5f" transform="scale(0.015625)"/>
      <path d="M 2214 275 
Q 2125 224 1939 166 
Q 1754 109 1510 109 
Q 1248 109 1021 195 
Q 794 282 624 458 
Q 454 634 355 906 
Q 256 1178 256 1549 
Q 256 1875 349 2147 
Q 442 2419 618 2617 
Q 794 2816 1050 2928 
Q 1306 3040 1632 3040 
Q 2016 3040 2288 2985 
Q 2560 2931 2746 2880 
L 2746 230 
Q 2746 -461 2397 -768 
Q 2048 -1075 1344 -1075 
Q 1056 -1075 822 -1030 
Q 589 -986 410 -922 
L 506 -454 
Q 672 -525 886 -569 
Q 1101 -614 1357 -614 
Q 1818 -614 2016 -428 
Q 2214 -243 2214 173 
L 2214 275 
z
M 2214 2502 
Q 2138 2528 2003 2550 
Q 1869 2573 1638 2573 
Q 1229 2573 1014 2291 
Q 800 2010 800 1542 
Q 800 1286 861 1104 
Q 922 922 1027 803 
Q 1133 685 1267 630 
Q 1402 576 1555 576 
Q 1754 576 1930 633 
Q 2106 691 2214 768 
L 2214 2502 
z
" id="UbuntuMono-Regular-67" transform="scale(0.015625)"/>
      <path d="M 2746 83 
Q 2573 38 2288 -13 
Q 2003 -64 1619 -64 
Q 1280 -64 1056 35 
Q 832 134 691 316 
Q 550 499 492 748 
Q 435 998 435 1299 
L 435 2970 
L 960 2970 
L 960 1414 
Q 960 864 1123 633 
Q 1286 403 1670 403 
Q 1754 403 1840 409 
Q 1926 416 2003 425 
Q 2080 435 2137 444 
Q 2195 454 2214 461 
L 2214 2970 
L 2746 2970 
L 2746 83 
z
" id="UbuntuMono-Regular-75" transform="scale(0.015625)"/>
      <path d="M 2163 -70 
Q 1882 -70 1696 6 
Q 1510 83 1401 236 
Q 1293 390 1248 617 
Q 1203 845 1203 1146 
L 1203 3955 
L 346 3955 
L 346 4403 
L 1728 4403 
L 1728 1146 
Q 1728 922 1757 781 
Q 1786 640 1846 553 
Q 1907 467 1996 435 
Q 2086 403 2208 403 
Q 2394 403 2554 448 
Q 2714 493 2803 544 
L 2880 96 
Q 2842 77 2771 48 
Q 2701 19 2605 -6 
Q 2509 -32 2397 -51 
Q 2285 -70 2163 -70 
z
" id="UbuntuMono-Regular-6c" transform="scale(0.015625)"/>
     </defs>
     <use xlink:href="#UbuntuMono-Regular-72"/>
     <use x="49.999985" xlink:href="#UbuntuMono-Regular-61"/>
     <use x="99.999969" xlink:href="#UbuntuMono-Regular-6e"/>
     <use x="149.999954" xlink:href="#UbuntuMono-Regular-64"/>
     <use x="199.999939" xlink:href="#UbuntuMono-Regular-6f"/>
     <use x="249.999924" xlink:href="#UbuntuMono-Regular-6d"/>
     <use x="299.999908" xlink:href="#UbuntuMono-Regular-5f"/>
     <use x="349.999893" xlink:href="#UbuntuMono-Regular-72"/>
     <use x="399.999878" xlink:href="#UbuntuMono-Regular-65"/>
     <use x="449.999863" xlink:href="#UbuntuMono-Regular-67"/>
     <use x="499.999847" xlink:href="#UbuntuMono-Regular-75"/>
     <use x="549.999832" xlink:href="#UbuntuMono-Regular-6c"/>
     <use x="599.999817" xlink:href="#UbuntuMono-Regular-61"/>
     <use x="649.999802" xlink:href="#UbuntuMono-Regular-72"/>
     <use x="699.999786" xlink:href="#UbuntuMono-Regular-5f"/>
     <use x="749.999771" xlink:href="#UbuntuMono-Regular-67"/>
     <use x="799.999756" xlink:href="#UbuntuMono-Regular-72"/>
     <use x="849.999741" xlink:href="#UbuntuMono-Regular-61"/>
     <use x="899.999725" xlink:href="#UbuntuMono-Regular-70"/>
     <use x="949.99971" xlink:href="#UbuntuMono-Regular-68"/>
    </g>
    <!-- smallgraph -->
    <g transform="translate(73.842752 106.565033)scale(0.12 -0.12)">
     <defs>
      <path d="M 2246 742 
Q 2246 902 2115 1004 
Q 1984 1107 1789 1184 
Q 1594 1261 1363 1334 
Q 1133 1408 937 1517 
Q 742 1626 611 1786 
Q 480 1946 480 2202 
Q 480 2560 771 2800 
Q 1062 3040 1683 3040 
Q 1926 3040 2185 3005 
Q 2445 2970 2630 2912 
L 2534 2438 
Q 2483 2464 2393 2493 
Q 2304 2522 2189 2544 
Q 2074 2566 1942 2579 
Q 1811 2592 1690 2592 
Q 998 2592 998 2214 
Q 998 2080 1129 1987 
Q 1261 1894 1459 1817 
Q 1658 1741 1888 1661 
Q 2118 1581 2316 1465 
Q 2515 1350 2646 1187 
Q 2778 1024 2778 774 
Q 2778 371 2464 150 
Q 2150 -70 1472 -70 
Q 1165 -70 909 -19 
Q 653 32 422 134 
L 525 614 
Q 749 512 995 445 
Q 1242 378 1523 378 
Q 2246 378 2246 742 
z
" id="UbuntuMono-Regular-73" transform="scale(0.015625)"/>
     </defs>
     <use xlink:href="#UbuntuMono-Regular-73"/>
     <use x="49.999985" xlink:href="#UbuntuMono-Regular-6d"/>
     <use x="99.999969" xlink:href="#UbuntuMono-Regular-61"/>
     <use x="149.999954" xlink:href="#UbuntuMono-Regular-6c"/>
     <use x="199.999939" xlink:href="#UbuntuMono-Regular-6c"/>
     <use x="249.999924" xlink:href="#UbuntuMono-Regular-67"/>
     <use x="299.999908" xlink:href="#UbuntuMono-Regular-72"/>
     <use x="349.999893" xlink:href="#UbuntuMono-Regular-61"/>
     <use x="399.999878" xlink:href="#UbuntuMono-Regular-70"/>
     <use x="449.999863" xlink:href="#UbuntuMono-Regular-68"/>
    </g>
    <!-- unit_disk_graph -->
    <g transform="translate(58.842752 118.559408)scale(0.12 -0.12)">
     <defs>
      <path d="M 1523 1632 
Q 1696 1504 1913 1309 
Q 2131 1114 2345 890 
Q 2560 666 2752 432 
Q 2944 198 3059 0 
L 2432 0 
Q 2310 198 2131 406 
Q 1952 614 1750 806 
Q 1549 998 1347 1158 
Q 1146 1318 986 1427 
L 986 0 
L 454 0 
L 454 4346 
L 986 4435 
L 986 1728 
Q 1338 2035 1690 2339 
Q 2042 2643 2323 2970 
L 2944 2970 
Q 2669 2643 2281 2297 
Q 1894 1952 1523 1632 
z
" id="UbuntuMono-Regular-6b" transform="scale(0.015625)"/>
     </defs>
     <use xlink:href="#UbuntuMono-Regular-75"/>
     <use x="49.999985" xlink:href="#UbuntuMono-Regular-6e"/>
     <use x="99.999969" xlink:href="#UbuntuMono-Regular-69"/>
     <use x="149.999954" xlink:href="#UbuntuMono-Regular-74"/>
     <use x="199.999939" xlink:href="#UbuntuMono-Regular-5f"/>
     <use x="249.999924" xlink:href="#UbuntuMono-Regular-64"/>
     <use x="299.999908" xlink:href="#UbuntuMono-Regular-69"/>
     <use x="349.999893" xlink:href="#UbuntuMono-Regular-73"/>
     <use x="399.999878" xlink:href="#UbuntuMono-Regular-6b"/>
     <use x="449.999863" xlink:href="#UbuntuMono-Regular-5f"/>
     <use x="499.999847" xlink:href="#UbuntuMono-Regular-67"/>
     <use x="549.999832" xlink:href="#UbuntuMono-Regular-72"/>
     <use x="599.999817" xlink:href="#UbuntuMono-Regular-61"/>
     <use x="649.999802" xlink:href="#UbuntuMono-Regular-70"/>
     <use x="699.999786" xlink:href="#UbuntuMono-Regular-68"/>
    </g>
    <!-- erdos_renyi -->
    <g transform="translate(70.842752 130.553783)scale(0.12 -0.12)">
     <use xlink:href="#UbuntuMono-Regular-65"/>
     <use x="49.999985" xlink:href="#UbuntuMono-Regular-72"/>
     <use x="99.999969" xlink:href="#UbuntuMono-Regular-64"/>
     <use x="149.999954" xlink:href="#UbuntuMono-Regular-6f"/>
     <use x="199.999939" xlink:href="#UbuntuMono-Regular-73"/>
     <use x="249.999924" xlink:href="#UbuntuMono-Regular-5f"/>
     <use x="299.999908" xlink:href="#UbuntuMono-Regular-72"/>
     <use x="349.999893" xlink:href="#UbuntuMono-Regular-65"/>
     <use x="399.999878" xlink:href="#UbuntuMono-Regular-6e"/>
     <use x="449.999863" xlink:href="#UbuntuMono-Regular-79"/>
     <use x="499.999847" xlink:href="#UbuntuMono-Regular-69"/>
    </g>
    <!-- $\ldots$ -->
    <g transform="translate(97.842752 142.476158)scale(0.12 -0.12)">
     <use transform="translate(0 0.53125)" xlink:href="#TimesNewRomanPSMT-2026"/>
    </g>
   </g>
   <g id="text_5">
    <!-- Property -->
    <g transform="translate(242.164944 215.618265)scale(0.1 -0.1)">
     <defs>
      <path d="M 588 4666 
L 2584 4666 
Q 3475 4666 3951 4270 
Q 4428 3875 4428 3144 
Q 4428 2409 3951 2014 
Q 3475 1619 2584 1619 
L 1791 1619 
L 1791 0 
L 588 0 
L 588 4666 
z
M 1791 3794 
L 1791 2491 
L 2456 2491 
Q 2806 2491 2997 2661 
Q 3188 2831 3188 3144 
Q 3188 3456 2997 3625 
Q 2806 3794 2456 3794 
L 1791 3794 
z
" id="DejaVuSans-Bold-50" transform="scale(0.015625)"/>
      <path d="M 2203 2784 
Q 1831 2784 1636 2517 
Q 1441 2250 1441 1747 
Q 1441 1244 1636 976 
Q 1831 709 2203 709 
Q 2569 709 2762 976 
Q 2956 1244 2956 1747 
Q 2956 2250 2762 2517 
Q 2569 2784 2203 2784 
z
M 2203 3584 
Q 3106 3584 3614 3096 
Q 4122 2609 4122 1747 
Q 4122 884 3614 396 
Q 3106 -91 2203 -91 
Q 1297 -91 786 396 
Q 275 884 275 1747 
Q 275 2609 786 3096 
Q 1297 3584 2203 3584 
z
" id="DejaVuSans-Bold-6f" transform="scale(0.015625)"/>
      <path d="M 78 3500 
L 1197 3500 
L 2138 1125 
L 2938 3500 
L 4056 3500 
L 2584 -331 
Q 2363 -916 2067 -1148 
Q 1772 -1381 1288 -1381 
L 641 -1381 
L 641 -647 
L 991 -647 
Q 1275 -647 1404 -556 
Q 1534 -466 1606 -231 
L 1638 -134 
L 78 3500 
z
" id="DejaVuSans-Bold-79" transform="scale(0.015625)"/>
     </defs>
     <use xlink:href="#DejaVuSans-Bold-50"/>
     <use x="73.291016" xlink:href="#DejaVuSans-Bold-72"/>
     <use x="122.607422" xlink:href="#DejaVuSans-Bold-6f"/>
     <use x="191.308594" xlink:href="#DejaVuSans-Bold-70"/>
     <use x="262.890625" xlink:href="#DejaVuSans-Bold-65"/>
     <use x="330.712891" xlink:href="#DejaVuSans-Bold-72"/>
     <use x="380.029297" xlink:href="#DejaVuSans-Bold-74"/>
     <use x="427.832031" xlink:href="#DejaVuSans-Bold-79"/>
    </g>
   </g>
   <g id="text_6">
    <!-- SizeMax -->
    <g transform="translate(245.815725 236.244887)scale(0.12 -0.12)">
     <defs>
      <path d="M 2688 2573 
Q 2573 2438 2374 2198 
Q 2176 1958 1949 1667 
Q 1722 1376 1498 1056 
Q 1274 736 1101 448 
L 2733 448 
L 2733 0 
L 467 0 
L 467 352 
Q 602 608 803 912 
Q 1005 1216 1222 1513 
Q 1440 1811 1648 2080 
Q 1856 2349 2010 2528 
L 550 2528 
L 550 2970 
L 2688 2970 
L 2688 2573 
z
" id="UbuntuMono-Regular-7a" transform="scale(0.015625)"/>
      <path d="M 2432 0 
Q 2368 128 2275 281 
Q 2182 435 2073 598 
Q 1965 762 1846 922 
Q 1728 1082 1613 1222 
Q 1498 1075 1370 915 
Q 1242 755 1123 592 
Q 1005 429 902 275 
Q 800 122 730 0 
L 186 0 
Q 397 384 701 790 
Q 1005 1197 1299 1562 
L 230 2970 
L 826 2970 
L 1626 1933 
L 2362 2970 
L 2925 2970 
L 1946 1594 
Q 2234 1216 2525 806 
Q 2816 397 3021 0 
L 2432 0 
z
" id="UbuntuMono-Regular-78" transform="scale(0.015625)"/>
     </defs>
     <use xlink:href="#UbuntuMono-Regular-53"/>
     <use x="49.999985" xlink:href="#UbuntuMono-Regular-69"/>
     <use x="99.999969" xlink:href="#UbuntuMono-Regular-7a"/>
     <use x="149.999954" xlink:href="#UbuntuMono-Regular-65"/>
     <use x="199.999939" xlink:href="#UbuntuMono-Regular-4d"/>
     <use x="249.999924" xlink:href="#UbuntuMono-Regular-61"/>
     <use x="299.999908" xlink:href="#UbuntuMono-Regular-78"/>
    </g>
    <!-- SizeMin -->
    <g transform="translate(245.815725 248.131637)scale(0.12 -0.12)">
     <use xlink:href="#UbuntuMono-Regular-53"/>
     <use x="49.999985" xlink:href="#UbuntuMono-Regular-69"/>
     <use x="99.999969" xlink:href="#UbuntuMono-Regular-7a"/>
     <use x="149.999954" xlink:href="#UbuntuMono-Regular-65"/>
     <use x="199.999939" xlink:href="#UbuntuMono-Regular-4d"/>
     <use x="249.999924" xlink:href="#UbuntuMono-Regular-69"/>
     <use x="299.999908" xlink:href="#UbuntuMono-Regular-6e"/>
    </g>
    <!--  -->
    <g transform="translate(266.815725 260.018387)scale(0.12 -0.12)"/>
    <!-- CountingAll -->
    <g transform="translate(233.815725 271.905137)scale(0.12 -0.12)">
     <defs>
      <path d="M 2944 166 
Q 2720 38 2467 -22 
Q 2214 -83 1926 -83 
Q 1574 -83 1276 41 
Q 979 166 761 419 
Q 544 672 419 1062 
Q 294 1453 294 1984 
Q 294 2490 425 2874 
Q 557 3258 781 3520 
Q 1005 3782 1305 3916 
Q 1606 4051 1946 4051 
Q 2182 4051 2428 3987 
Q 2675 3923 2912 3776 
L 2758 3341 
Q 2336 3584 1965 3584 
Q 1702 3584 1494 3472 
Q 1286 3360 1139 3149 
Q 992 2938 912 2643 
Q 832 2349 832 1984 
Q 832 1574 918 1273 
Q 1005 973 1158 774 
Q 1312 576 1526 480 
Q 1741 384 1990 384 
Q 2176 384 2381 432 
Q 2586 480 2803 602 
L 2944 166 
z
" id="UbuntuMono-Regular-43" transform="scale(0.015625)"/>
     </defs>
     <use xlink:href="#UbuntuMono-Regular-43"/>
     <use x="49.999985" xlink:href="#UbuntuMono-Regular-6f"/>
     <use x="99.999969" xlink:href="#UbuntuMono-Regular-75"/>
     <use x="149.999954" xlink:href="#UbuntuMono-Regular-6e"/>
     <use x="199.999939" xlink:href="#UbuntuMono-Regular-74"/>
     <use x="249.999924" xlink:href="#UbuntuMono-Regular-69"/>
     <use x="299.999908" xlink:href="#UbuntuMono-Regular-6e"/>
     <use x="349.999893" xlink:href="#UbuntuMono-Regular-67"/>
     <use x="399.999878" xlink:href="#UbuntuMono-Regular-41"/>
     <use x="449.999863" xlink:href="#UbuntuMono-Regular-6c"/>
     <use x="499.999847" xlink:href="#UbuntuMono-Regular-6c"/>
    </g>
    <!-- CountingMax -->
    <g transform="translate(233.815725 283.827512)scale(0.12 -0.12)">
     <use xlink:href="#UbuntuMono-Regular-43"/>
     <use x="49.999985" xlink:href="#UbuntuMono-Regular-6f"/>
     <use x="99.999969" xlink:href="#UbuntuMono-Regular-75"/>
     <use x="149.999954" xlink:href="#UbuntuMono-Regular-6e"/>
     <use x="199.999939" xlink:href="#UbuntuMono-Regular-74"/>
     <use x="249.999924" xlink:href="#UbuntuMono-Regular-69"/>
     <use x="299.999908" xlink:href="#UbuntuMono-Regular-6e"/>
     <use x="349.999893" xlink:href="#UbuntuMono-Regular-67"/>
     <use x="399.999878" xlink:href="#UbuntuMono-Regular-4d"/>
     <use x="449.999863" xlink:href="#UbuntuMono-Regular-61"/>
     <use x="499.999847" xlink:href="#UbuntuMono-Regular-78"/>
    </g>
    <!-- CountingMin -->
    <g transform="translate(233.815725 295.749887)scale(0.12 -0.12)">
     <use xlink:href="#UbuntuMono-Regular-43"/>
     <use x="49.999985" xlink:href="#UbuntuMono-Regular-6f"/>
     <use x="99.999969" xlink:href="#UbuntuMono-Regular-75"/>
     <use x="149.999954" xlink:href="#UbuntuMono-Regular-6e"/>
     <use x="199.999939" xlink:href="#UbuntuMono-Regular-74"/>
     <use x="249.999924" xlink:href="#UbuntuMono-Regular-69"/>
     <use x="299.999908" xlink:href="#UbuntuMono-Regular-6e"/>
     <use x="349.999893" xlink:href="#UbuntuMono-Regular-67"/>
     <use x="399.999878" xlink:href="#UbuntuMono-Regular-4d"/>
     <use x="449.999863" xlink:href="#UbuntuMono-Regular-69"/>
     <use x="499.999847" xlink:href="#UbuntuMono-Regular-6e"/>
    </g>
    <!-- GraphPolynomial -->
    <g transform="translate(221.815725 307.744262)scale(0.12 -0.12)">
     <defs>
      <path d="M 1504 4000 
Q 1856 4000 2121 3910 
Q 2387 3821 2563 3657 
Q 2739 3494 2825 3270 
Q 2912 3046 2912 2771 
Q 2912 2150 2547 1814 
Q 2182 1478 1453 1478 
L 992 1478 
L 992 0 
L 467 0 
L 467 3904 
Q 582 3930 720 3949 
Q 858 3968 995 3981 
Q 1133 3994 1264 3997 
Q 1395 4000 1504 4000 
z
M 1542 3546 
Q 1376 3546 1222 3542 
Q 1069 3539 992 3526 
L 992 1926 
L 1427 1926 
Q 1907 1926 2140 2118 
Q 2374 2310 2374 2752 
Q 2374 3546 1542 3546 
z
" id="UbuntuMono-Regular-50" transform="scale(0.015625)"/>
     </defs>
     <use xlink:href="#UbuntuMono-Regular-47"/>
     <use x="49.999985" xlink:href="#UbuntuMono-Regular-72"/>
     <use x="99.999969" xlink:href="#UbuntuMono-Regular-61"/>
     <use x="149.999954" xlink:href="#UbuntuMono-Regular-70"/>
     <use x="199.999939" xlink:href="#UbuntuMono-Regular-68"/>
     <use x="249.999924" xlink:href="#UbuntuMono-Regular-50"/>
     <use x="299.999908" xlink:href="#UbuntuMono-Regular-6f"/>
     <use x="349.999893" xlink:href="#UbuntuMono-Regular-6c"/>
     <use x="399.999878" xlink:href="#UbuntuMono-Regular-79"/>
     <use x="449.999863" xlink:href="#UbuntuMono-Regular-6e"/>
     <use x="499.999847" xlink:href="#UbuntuMono-Regular-6f"/>
     <use x="549.999832" xlink:href="#UbuntuMono-Regular-6d"/>
     <use x="599.999817" xlink:href="#UbuntuMono-Regular-69"/>
     <use x="649.999802" xlink:href="#UbuntuMono-Regular-61"/>
     <use x="699.999786" xlink:href="#UbuntuMono-Regular-6c"/>
    </g>
    <!--  -->
    <g transform="translate(266.815725 319.666637)scale(0.12 -0.12)"/>
    <!-- SingleConfigMax -->
    <g transform="translate(221.815725 331.625387)scale(0.12 -0.12)">
     <defs>
      <path d="M 1030 0 
L 1030 2528 
L 403 2528 
L 403 2970 
L 1030 2970 
L 1030 3238 
Q 1030 3584 1126 3811 
Q 1222 4038 1379 4179 
Q 1536 4320 1744 4377 
Q 1952 4435 2182 4435 
Q 2413 4435 2646 4384 
Q 2880 4333 3085 4262 
L 2989 3808 
Q 2848 3878 2637 3929 
Q 2426 3981 2208 3981 
Q 2074 3981 1955 3945 
Q 1837 3910 1747 3824 
Q 1658 3738 1606 3594 
Q 1555 3450 1555 3232 
L 1555 2970 
L 2752 2970 
L 2752 2528 
L 1555 2528 
L 1555 0 
L 1030 0 
z
" id="UbuntuMono-Regular-66" transform="scale(0.015625)"/>
     </defs>
     <use xlink:href="#UbuntuMono-Regular-53"/>
     <use x="49.999985" xlink:href="#UbuntuMono-Regular-69"/>
     <use x="99.999969" xlink:href="#UbuntuMono-Regular-6e"/>
     <use x="149.999954" xlink:href="#UbuntuMono-Regular-67"/>
     <use x="199.999939" xlink:href="#UbuntuMono-Regular-6c"/>
     <use x="249.999924" xlink:href="#UbuntuMono-Regular-65"/>
     <use x="299.999908" xlink:href="#UbuntuMono-Regular-43"/>
     <use x="349.999893" xlink:href="#UbuntuMono-Regular-6f"/>
     <use x="399.999878" xlink:href="#UbuntuMono-Regular-6e"/>
     <use x="449.999863" xlink:href="#UbuntuMono-Regular-66"/>
     <use x="499.999847" xlink:href="#UbuntuMono-Regular-69"/>
     <use x="549.999832" xlink:href="#UbuntuMono-Regular-67"/>
     <use x="599.999817" xlink:href="#UbuntuMono-Regular-4d"/>
     <use x="649.999802" xlink:href="#UbuntuMono-Regular-61"/>
     <use x="699.999786" xlink:href="#UbuntuMono-Regular-78"/>
    </g>
    <!-- SingleConfigMin -->
    <g transform="translate(221.815725 343.619762)scale(0.12 -0.12)">
     <use xlink:href="#UbuntuMono-Regular-53"/>
     <use x="49.999985" xlink:href="#UbuntuMono-Regular-69"/>
     <use x="99.999969" xlink:href="#UbuntuMono-Regular-6e"/>
     <use x="149.999954" xlink:href="#UbuntuMono-Regular-67"/>
     <use x="199.999939" xlink:href="#UbuntuMono-Regular-6c"/>
     <use x="249.999924" xlink:href="#UbuntuMono-Regular-65"/>
     <use x="299.999908" xlink:href="#UbuntuMono-Regular-43"/>
     <use x="349.999893" xlink:href="#UbuntuMono-Regular-6f"/>
     <use x="399.999878" xlink:href="#UbuntuMono-Regular-6e"/>
     <use x="449.999863" xlink:href="#UbuntuMono-Regular-66"/>
     <use x="499.999847" xlink:href="#UbuntuMono-Regular-69"/>
     <use x="549.999832" xlink:href="#UbuntuMono-Regular-67"/>
     <use x="599.999817" xlink:href="#UbuntuMono-Regular-4d"/>
     <use x="649.999802" xlink:href="#UbuntuMono-Regular-69"/>
     <use x="699.999786" xlink:href="#UbuntuMono-Regular-6e"/>
    </g>
    <!-- ConfigsMax -->
    <g transform="translate(236.815725 355.614137)scale(0.12 -0.12)">
     <use xlink:href="#UbuntuMono-Regular-43"/>
     <use x="49.999985" xlink:href="#UbuntuMono-Regular-6f"/>
     <use x="99.999969" xlink:href="#UbuntuMono-Regular-6e"/>
     <use x="149.999954" xlink:href="#UbuntuMono-Regular-66"/>
     <use x="199.999939" xlink:href="#UbuntuMono-Regular-69"/>
     <use x="249.999924" xlink:href="#UbuntuMono-Regular-67"/>
     <use x="299.999908" xlink:href="#UbuntuMono-Regular-73"/>
     <use x="349.999893" xlink:href="#UbuntuMono-Regular-4d"/>
     <use x="399.999878" xlink:href="#UbuntuMono-Regular-61"/>
     <use x="449.999863" xlink:href="#UbuntuMono-Regular-78"/>
    </g>
    <!-- ConfigsMin -->
    <g transform="translate(236.815725 367.608512)scale(0.12 -0.12)">
     <use xlink:href="#UbuntuMono-Regular-43"/>
     <use x="49.999985" xlink:href="#UbuntuMono-Regular-6f"/>
     <use x="99.999969" xlink:href="#UbuntuMono-Regular-6e"/>
     <use x="149.999954" xlink:href="#UbuntuMono-Regular-66"/>
     <use x="199.999939" xlink:href="#UbuntuMono-Regular-69"/>
     <use x="249.999924" xlink:href="#UbuntuMono-Regular-67"/>
     <use x="299.999908" xlink:href="#UbuntuMono-Regular-73"/>
     <use x="349.999893" xlink:href="#UbuntuMono-Regular-4d"/>
     <use x="399.999878" xlink:href="#UbuntuMono-Regular-69"/>
     <use x="449.999863" xlink:href="#UbuntuMono-Regular-6e"/>
    </g>
    <!-- ConfigsAll -->
    <g transform="translate(236.815725 379.602887)scale(0.12 -0.12)">
     <use xlink:href="#UbuntuMono-Regular-43"/>
     <use x="49.999985" xlink:href="#UbuntuMono-Regular-6f"/>
     <use x="99.999969" xlink:href="#UbuntuMono-Regular-6e"/>
     <use x="149.999954" xlink:href="#UbuntuMono-Regular-66"/>
     <use x="199.999939" xlink:href="#UbuntuMono-Regular-69"/>
     <use x="249.999924" xlink:href="#UbuntuMono-Regular-67"/>
     <use x="299.999908" xlink:href="#UbuntuMono-Regular-73"/>
     <use x="349.999893" xlink:href="#UbuntuMono-Regular-41"/>
     <use x="399.999878" xlink:href="#UbuntuMono-Regular-6c"/>
     <use x="449.999863" xlink:href="#UbuntuMono-Regular-6c"/>
    </g>
   </g>
   <g id="text_7">
    <!-- Problem -->
    <g transform="translate(243.355569 38.088617)scale(0.1 -0.1)">
     <defs>
      <path d="M 2400 722 
Q 2759 722 2948 984 
Q 3138 1247 3138 1747 
Q 3138 2247 2948 2509 
Q 2759 2772 2400 2772 
Q 2041 2772 1848 2508 
Q 1656 2244 1656 1747 
Q 1656 1250 1848 986 
Q 2041 722 2400 722 
z
M 1656 2988 
Q 1888 3294 2169 3439 
Q 2450 3584 2816 3584 
Q 3463 3584 3878 3070 
Q 4294 2556 4294 1747 
Q 4294 938 3878 423 
Q 3463 -91 2816 -91 
Q 2450 -91 2169 54 
Q 1888 200 1656 506 
L 1656 0 
L 538 0 
L 538 4863 
L 1656 4863 
L 1656 2988 
z
" id="DejaVuSans-Bold-62" transform="scale(0.015625)"/>
      <path d="M 538 4863 
L 1656 4863 
L 1656 0 
L 538 0 
L 538 4863 
z
" id="DejaVuSans-Bold-6c" transform="scale(0.015625)"/>
     </defs>
     <use xlink:href="#DejaVuSans-Bold-50"/>
     <use x="73.291016" xlink:href="#DejaVuSans-Bold-72"/>
     <use x="122.607422" xlink:href="#DejaVuSans-Bold-6f"/>
     <use x="191.308594" xlink:href="#DejaVuSans-Bold-62"/>
     <use x="262.890625" xlink:href="#DejaVuSans-Bold-6c"/>
     <use x="297.167969" xlink:href="#DejaVuSans-Bold-65"/>
     <use x="364.990234" xlink:href="#DejaVuSans-Bold-6d"/>
    </g>
   </g>
   <g id="text_8">
    <!-- IndependentSet -->
    <g transform="translate(224.815725 64.782158)scale(0.12 -0.12)">
     <defs>
      <path d="M 1862 3514 
L 1862 448 
L 2630 448 
L 2630 0 
L 570 0 
L 570 448 
L 1338 448 
L 1338 3514 
L 570 3514 
L 570 3962 
L 2630 3962 
L 2630 3514 
L 1862 3514 
z
" id="UbuntuMono-Regular-49" transform="scale(0.015625)"/>
     </defs>
     <use xlink:href="#UbuntuMono-Regular-49"/>
     <use x="49.999985" xlink:href="#UbuntuMono-Regular-6e"/>
     <use x="99.999969" xlink:href="#UbuntuMono-Regular-64"/>
     <use x="149.999954" xlink:href="#UbuntuMono-Regular-65"/>
     <use x="199.999939" xlink:href="#UbuntuMono-Regular-70"/>
     <use x="249.999924" xlink:href="#UbuntuMono-Regular-65"/>
     <use x="299.999908" xlink:href="#UbuntuMono-Regular-6e"/>
     <use x="349.999893" xlink:href="#UbuntuMono-Regular-64"/>
     <use x="399.999878" xlink:href="#UbuntuMono-Regular-65"/>
     <use x="449.999863" xlink:href="#UbuntuMono-Regular-6e"/>
     <use x="499.999847" xlink:href="#UbuntuMono-Regular-74"/>
     <use x="549.999832" xlink:href="#UbuntuMono-Regular-53"/>
     <use x="599.999817" xlink:href="#UbuntuMono-Regular-65"/>
     <use x="649.999802" xlink:href="#UbuntuMono-Regular-74"/>
    </g>
    <!-- MaximalIS -->
    <g transform="translate(239.815725 76.668908)scale(0.12 -0.12)">
     <use xlink:href="#UbuntuMono-Regular-4d"/>
     <use x="49.999985" xlink:href="#UbuntuMono-Regular-61"/>
     <use x="99.999969" xlink:href="#UbuntuMono-Regular-78"/>
     <use x="149.999954" xlink:href="#UbuntuMono-Regular-69"/>
     <use x="199.999939" xlink:href="#UbuntuMono-Regular-6d"/>
     <use x="249.999924" xlink:href="#UbuntuMono-Regular-61"/>
     <use x="299.999908" xlink:href="#UbuntuMono-Regular-6c"/>
     <use x="349.999893" xlink:href="#UbuntuMono-Regular-49"/>
     <use x="399.999878" xlink:href="#UbuntuMono-Regular-53"/>
    </g>
    <!-- DominatingSet -->
    <g transform="translate(227.815725 88.555658)scale(0.12 -0.12)">
     <defs>
      <path d="M 2944 1984 
Q 2944 1434 2806 1050 
Q 2669 666 2429 426 
Q 2189 186 1859 77 
Q 1530 -32 1146 -32 
Q 749 -32 346 64 
L 346 3904 
Q 749 4000 1146 4000 
Q 1530 4000 1859 3891 
Q 2189 3782 2429 3539 
Q 2669 3296 2806 2912 
Q 2944 2528 2944 1984 
z
M 870 442 
Q 1030 422 1197 422 
Q 1485 422 1709 508 
Q 1933 595 2086 784 
Q 2240 973 2323 1270 
Q 2406 1568 2406 1984 
Q 2406 2790 2096 3168 
Q 1786 3546 1178 3546 
Q 1094 3546 1014 3542 
Q 934 3539 870 3526 
L 870 442 
z
" id="UbuntuMono-Regular-44" transform="scale(0.015625)"/>
     </defs>
     <use xlink:href="#UbuntuMono-Regular-44"/>
     <use x="49.999985" xlink:href="#UbuntuMono-Regular-6f"/>
     <use x="99.999969" xlink:href="#UbuntuMono-Regular-6d"/>
     <use x="149.999954" xlink:href="#UbuntuMono-Regular-69"/>
     <use x="199.999939" xlink:href="#UbuntuMono-Regular-6e"/>
     <use x="249.999924" xlink:href="#UbuntuMono-Regular-61"/>
     <use x="299.999908" xlink:href="#UbuntuMono-Regular-74"/>
     <use x="349.999893" xlink:href="#UbuntuMono-Regular-69"/>
     <use x="399.999878" xlink:href="#UbuntuMono-Regular-6e"/>
     <use x="449.999863" xlink:href="#UbuntuMono-Regular-67"/>
     <use x="499.999847" xlink:href="#UbuntuMono-Regular-53"/>
     <use x="549.999832" xlink:href="#UbuntuMono-Regular-65"/>
     <use x="599.999817" xlink:href="#UbuntuMono-Regular-74"/>
    </g>
    <!-- Coloring -->
    <g transform="translate(242.815725 100.478033)scale(0.12 -0.12)">
     <use xlink:href="#UbuntuMono-Regular-43"/>
     <use x="49.999985" xlink:href="#UbuntuMono-Regular-6f"/>
     <use x="99.999969" xlink:href="#UbuntuMono-Regular-6c"/>
     <use x="149.999954" xlink:href="#UbuntuMono-Regular-6f"/>
     <use x="199.999939" xlink:href="#UbuntuMono-Regular-72"/>
     <use x="249.999924" xlink:href="#UbuntuMono-Regular-69"/>
     <use x="299.999908" xlink:href="#UbuntuMono-Regular-6e"/>
     <use x="349.999893" xlink:href="#UbuntuMono-Regular-67"/>
    </g>
    <!-- MaxCut -->
    <g transform="translate(248.815725 112.400408)scale(0.12 -0.12)">
     <use xlink:href="#UbuntuMono-Regular-4d"/>
     <use x="49.999985" xlink:href="#UbuntuMono-Regular-61"/>
     <use x="99.999969" xlink:href="#UbuntuMono-Regular-78"/>
     <use x="149.999954" xlink:href="#UbuntuMono-Regular-43"/>
     <use x="199.999939" xlink:href="#UbuntuMono-Regular-75"/>
     <use x="249.999924" xlink:href="#UbuntuMono-Regular-74"/>
    </g>
    <!-- Matching -->
    <g transform="translate(242.815725 124.359158)scale(0.12 -0.12)">
     <defs>
      <path d="M 314 1478 
Q 314 1882 442 2176 
Q 570 2470 794 2662 
Q 1018 2854 1315 2947 
Q 1613 3040 1952 3040 
Q 2170 3040 2384 3011 
Q 2598 2982 2842 2906 
L 2720 2451 
Q 2509 2528 2333 2550 
Q 2157 2573 1978 2573 
Q 1747 2573 1542 2512 
Q 1338 2451 1187 2320 
Q 1037 2189 947 1981 
Q 858 1773 858 1478 
Q 858 1197 941 995 
Q 1024 794 1174 662 
Q 1325 531 1536 467 
Q 1747 403 2003 403 
Q 2208 403 2397 425 
Q 2586 448 2810 525 
L 2886 83 
Q 2662 0 2432 -35 
Q 2202 -70 1933 -70 
Q 1574 -70 1276 29 
Q 979 128 764 320 
Q 550 512 432 803 
Q 314 1094 314 1478 
z
" id="UbuntuMono-Regular-63" transform="scale(0.015625)"/>
     </defs>
     <use xlink:href="#UbuntuMono-Regular-4d"/>
     <use x="49.999985" xlink:href="#UbuntuMono-Regular-61"/>
     <use x="99.999969" xlink:href="#UbuntuMono-Regular-74"/>
     <use x="149.999954" xlink:href="#UbuntuMono-Regular-63"/>
     <use x="199.999939" xlink:href="#UbuntuMono-Regular-68"/>
     <use x="249.999924" xlink:href="#UbuntuMono-Regular-69"/>
     <use x="299.999908" xlink:href="#UbuntuMono-Regular-6e"/>
     <use x="349.999893" xlink:href="#UbuntuMono-Regular-67"/>
    </g>
    <!-- Satisfiability -->
    <g transform="translate(224.815725 136.353533)scale(0.12 -0.12)">
     <defs>
      <path d="M 986 2861 
Q 1082 2918 1264 2979 
Q 1446 3040 1670 3040 
Q 1971 3040 2208 2925 
Q 2445 2810 2608 2605 
Q 2771 2400 2857 2115 
Q 2944 1830 2944 1485 
Q 2944 1126 2841 838 
Q 2739 550 2553 348 
Q 2368 147 2105 38 
Q 1843 -70 1523 -70 
Q 1171 -70 896 -19 
Q 621 32 454 83 
L 454 4346 
L 986 4435 
L 986 2861 
z
M 986 461 
Q 1107 429 1228 413 
Q 1350 397 1459 397 
Q 1901 397 2150 669 
Q 2400 941 2400 1485 
Q 2400 1715 2355 1916 
Q 2310 2118 2214 2262 
Q 2118 2406 1968 2489 
Q 1818 2573 1606 2573 
Q 1421 2573 1248 2499 
Q 1075 2426 986 2342 
L 986 461 
z
" id="UbuntuMono-Regular-62" transform="scale(0.015625)"/>
     </defs>
     <use xlink:href="#UbuntuMono-Regular-53"/>
     <use x="49.999985" xlink:href="#UbuntuMono-Regular-61"/>
     <use x="99.999969" xlink:href="#UbuntuMono-Regular-74"/>
     <use x="149.999954" xlink:href="#UbuntuMono-Regular-69"/>
     <use x="199.999939" xlink:href="#UbuntuMono-Regular-73"/>
     <use x="249.999924" xlink:href="#UbuntuMono-Regular-66"/>
     <use x="299.999908" xlink:href="#UbuntuMono-Regular-69"/>
     <use x="349.999893" xlink:href="#UbuntuMono-Regular-61"/>
     <use x="399.999878" xlink:href="#UbuntuMono-Regular-62"/>
     <use x="449.999863" xlink:href="#UbuntuMono-Regular-69"/>
     <use x="499.999847" xlink:href="#UbuntuMono-Regular-6c"/>
     <use x="549.999832" xlink:href="#UbuntuMono-Regular-69"/>
     <use x="599.999817" xlink:href="#UbuntuMono-Regular-74"/>
     <use x="649.999802" xlink:href="#UbuntuMono-Regular-79"/>
    </g>
    <!-- PaintShop -->
    <g transform="translate(239.815725 148.347908)scale(0.12 -0.12)">
     <use xlink:href="#UbuntuMono-Regular-50"/>
     <use x="49.999985" xlink:href="#UbuntuMono-Regular-61"/>
     <use x="99.999969" xlink:href="#UbuntuMono-Regular-69"/>
     <use x="149.999954" xlink:href="#UbuntuMono-Regular-6e"/>
     <use x="199.999939" xlink:href="#UbuntuMono-Regular-74"/>
     <use x="249.999924" xlink:href="#UbuntuMono-Regular-53"/>
     <use x="299.999908" xlink:href="#UbuntuMono-Regular-68"/>
     <use x="349.999893" xlink:href="#UbuntuMono-Regular-6f"/>
     <use x="399.999878" xlink:href="#UbuntuMono-Regular-70"/>
    </g>
    <!-- SetPacking -->
    <g transform="translate(236.815725 160.306658)scale(0.12 -0.12)">
     <use xlink:href="#UbuntuMono-Regular-53"/>
     <use x="49.999985" xlink:href="#UbuntuMono-Regular-65"/>
     <use x="99.999969" xlink:href="#UbuntuMono-Regular-74"/>
     <use x="149.999954" xlink:href="#UbuntuMono-Regular-50"/>
     <use x="199.999939" xlink:href="#UbuntuMono-Regular-61"/>
     <use x="249.999924" xlink:href="#UbuntuMono-Regular-63"/>
     <use x="299.999908" xlink:href="#UbuntuMono-Regular-6b"/>
     <use x="349.999893" xlink:href="#UbuntuMono-Regular-69"/>
     <use x="399.999878" xlink:href="#UbuntuMono-Regular-6e"/>
     <use x="449.999863" xlink:href="#UbuntuMono-Regular-67"/>
    </g>
    <!-- SetCovering -->
    <g transform="translate(233.815725 172.229033)scale(0.12 -0.12)">
     <defs>
      <path d="M 3008 2970 
Q 2893 2554 2745 2154 
Q 2598 1754 2444 1373 
Q 2291 992 2131 646 
Q 1971 301 1824 0 
L 1344 0 
Q 1043 602 736 1370 
Q 429 2138 192 2970 
L 768 2970 
Q 845 2688 944 2374 
Q 1043 2061 1152 1747 
Q 1261 1434 1373 1142 
Q 1485 851 1594 621 
Q 1702 851 1820 1142 
Q 1939 1434 2054 1747 
Q 2170 2061 2275 2374 
Q 2381 2688 2458 2970 
L 3008 2970 
z
" id="UbuntuMono-Regular-76" transform="scale(0.015625)"/>
     </defs>
     <use xlink:href="#UbuntuMono-Regular-53"/>
     <use x="49.999985" xlink:href="#UbuntuMono-Regular-65"/>
     <use x="99.999969" xlink:href="#UbuntuMono-Regular-74"/>
     <use x="149.999954" xlink:href="#UbuntuMono-Regular-43"/>
     <use x="199.999939" xlink:href="#UbuntuMono-Regular-6f"/>
     <use x="249.999924" xlink:href="#UbuntuMono-Regular-76"/>
     <use x="299.999908" xlink:href="#UbuntuMono-Regular-65"/>
     <use x="349.999893" xlink:href="#UbuntuMono-Regular-72"/>
     <use x="399.999878" xlink:href="#UbuntuMono-Regular-69"/>
     <use x="449.999863" xlink:href="#UbuntuMono-Regular-6e"/>
     <use x="499.999847" xlink:href="#UbuntuMono-Regular-67"/>
    </g>
   </g>
   <g id="text_9">
    <!-- solve -->
    <g transform="translate(414.788698 207.297294)scale(0.12 -0.12)">
     <use xlink:href="#UbuntuMono-Regular-73"/>
     <use x="49.999985" xlink:href="#UbuntuMono-Regular-6f"/>
     <use x="99.999969" xlink:href="#UbuntuMono-Regular-6c"/>
     <use x="149.999954" xlink:href="#UbuntuMono-Regular-76"/>
     <use x="199.999939" xlink:href="#UbuntuMono-Regular-65"/>
    </g>
   </g>
  </g>
 </g>
 <defs>
  <clipPath id="p232b149d23">
   <rect height="410.4" width="482.4" x="10.8" y="10.8"/>
  </clipPath>
 </defs>
</svg>
